<svg xmlns="http://www.w3.org/2000/svg" viewBox="0 0 64 64" id="image"><path fill="#4b4c4f" d="M.06 45.29 9.99 5.31a2.142 2.142 0 0 1 2.59-1.56l49.8 12.37c1.14.28 1.84 1.44 1.56 2.59l-9.93 39.98a2.142 2.142 0 0 1-2.59 1.56L1.62 47.88a2.147 2.147 0 0 1-1.56-2.59z"></path><path fill="#ddd" d="M0 47.02V5.83C0 4.65.96 3.7 2.13 3.7h51.31c1.18 0 2.13.96 2.13 2.13v41.19c0 1.18-.96 2.13-2.13 2.13H2.13C.96 49.15 0 48.2 0 47.02z"></path><path fill="#67caf3" d="M2.9 6.6v39.65h49.78V6.6H2.9z"></path><path fill="#f6c240" d="M15.22 14.88c0 2.33-1.89 4.24-4.23 4.24-2.34 0-4.24-1.9-4.24-4.24 0-2.33 1.89-4.24 4.24-4.24 2.33 0 4.23 1.91 4.23 4.24z"></path><path fill="#e5e8e8" d="M20.63 25.72h28.61v17.64H20.63z"></path><path fill="#ff997f" d="M33.09 43.36h-9.13v-8.9c0-2.52 2.04-4.57 4.57-4.57 2.52 0 4.57 2.04 4.57 4.57v8.9z"></path><path fill="#ccc" d="M37.36 29.89v8.54h8.54v-8.54h-8.54zm3.97 7.95h-3.38v-3.38h3.38v3.38zm0-3.98h-3.38v-3.38h3.38v3.38zm3.98 3.98h-3.39v-3.38h3.39v3.38zm0-3.98h-3.39v-3.38h3.39v3.38z"></path><path fill="#4ca4cf" d="M41.92 34.46h3.39v3.38h-3.39zM37.95 34.46h3.38v3.38h-3.38zM37.95 30.48h3.38v3.38h-3.38zM41.92 30.48h3.39v3.38h-3.39z"></path><path fill="#e5e8e8" d="M22.05 14.88h3.75v7.56h-3.75z"></path><path fill="#ccc" d="M21.15 13.13h5.56v1.75h-5.56z"></path><path fill="#2578c0" d="M34.93 10.75 17.18 25.72h35.5z"></path><path fill="#e5e8e8" d="M37.6 18.23a2.67 2.67 0 1 1-2.67-2.67c1.47.01 2.67 1.2 2.67 2.67z"></path><path fill="#2578c0" d="M36.87 18.23c0 1.07-.87 1.95-1.95 1.95-1.07 0-1.95-.87-1.95-1.95 0-1.07.87-1.95 1.95-1.95 1.08.01 1.95.88 1.95 1.95z"></path><path fill="#89bf95" d="M52.68 33.82v12.43H28.1c1.1-1.89 2.58-3.49 4.28-4.86.9-.72 1.85-1.37 2.85-1.97.16-.1.34-.2.51-.3 1.92-1.1 3.98-1.99 6.01-2.71.01 0 .02-.01.02-.01 2.27-.8 4.52-1.38 6.53-1.82 1.66-.35 3.16-.6 4.38-.76z"></path><path fill="#6e9977" d="M32.39 41.39c-1.7 1.37-3.19 2.97-4.28 4.86H2.9V31.7c3.74.16 10.3.78 16.92 2.95 4.43 1.44 8.89 3.58 12.57 6.74z"></path></svg>
